<?xml version="1.0" encoding="UTF-8" standalone="no"?>
<!DOCTYPE svg PUBLIC "-//W3C//DTD SVG 1.1//EN" "http://www.w3.org/Graphics/SVG/1.1/DTD/svg11.dtd">
<svg width="100%" height="100%" viewBox="0 0 772 772" version="1.1" xmlns="http://www.w3.org/2000/svg" xmlns:xlink="http://www.w3.org/1999/xlink" xml:space="preserve" xmlns:serif="http://www.serif.com/" style="fill-rule:evenodd;clip-rule:evenodd;stroke-linejoin:round;stroke-miterlimit:2;">
    <g transform="matrix(0.5,-6.12323e-17,6.12323e-17,-1,1.13687e-13,772)">
        <rect x="0" y="0" width="1544" height="772" style="fill:url(#_Radial1);"/>
    </g>
    <g transform="matrix(10.9568,-2.54468,2.51632,10.7489,202.46,471.33)">
        <path d="M2,22C2,17.582 5.582,14 10,14C14.418,14 18,17.582 18,22L16,22C16,18.686 13.314,16 10,16C6.686,16 4,18.686 4,22L2,22ZM10,13C6.685,13 4,10.315 4,7C4,3.685 6.685,1 10,1C13.315,1 16,3.685 16,7C16,10.315 13.315,13 10,13ZM10,11C12.21,11 14,9.21 14,7C14,4.79 12.21,3 10,3C7.79,3 6,4.79 6,7C6,9.21 7.79,11 10,11ZM18.284,14.703C21.064,15.956 23,18.752 23,22L21,22C21,19.564 19.548,17.467 17.463,16.527L18.284,14.703ZM17.596,3.413C19.594,4.237 21,6.204 21,8.5C21,11.37 18.804,13.725 16,13.978L16,11.965C17.697,11.722 19,10.264 19,8.5C19,7.119 18.202,5.926 17.041,5.356L17.596,3.413Z" style="fill:rgb(173,184,194);fill-rule:nonzero;"/>
    </g>
    <g transform="matrix(1,0,0,1,-340.153,-134.633)">
        <path d="M438.403,277.2L444.903,277.2C452.103,277.2 455.703,274.067 455.703,267.8C455.703,261.533 452.103,258.4 444.903,258.4L438.403,258.4L438.403,277.2ZM438.403,318L418.803,318L418.803,242.6L450.003,242.6C458.469,242.6 464.953,244.8 469.453,249.2C473.953,253.6 476.203,259.8 476.203,267.8C476.203,275.8 473.953,282 469.453,286.4C464.953,290.8 458.469,293 450.003,293L438.403,293L438.403,318Z" style="fill:rgb(255,148,20);fill-rule:nonzero;"/>
        <path d="M500.503,292.1C500.503,293.833 500.819,295.417 501.453,296.85C502.086,298.283 502.919,299.533 503.953,300.6C504.986,301.667 506.219,302.5 507.653,303.1C509.086,303.7 510.603,304 512.203,304C513.803,304 515.319,303.7 516.753,303.1C518.186,302.5 519.419,301.667 520.453,300.6C521.486,299.533 522.319,298.283 522.953,296.85C523.586,295.417 523.903,293.867 523.903,292.2C523.903,290.6 523.586,289.083 522.953,287.65C522.319,286.217 521.486,284.967 520.453,283.9C519.419,282.833 518.186,282 516.753,281.4C515.319,280.8 513.803,280.5 512.203,280.5C510.603,280.5 509.086,280.8 507.653,281.4C506.219,282 504.986,282.833 503.953,283.9C502.919,284.967 502.086,286.2 501.453,287.6C500.819,289 500.503,290.5 500.503,292.1ZM481.403,291.9C481.403,288.1 482.169,284.55 483.703,281.25C485.236,277.95 487.369,275.083 490.103,272.65C492.836,270.217 496.086,268.3 499.853,266.9C503.619,265.5 507.736,264.8 512.203,264.8C516.603,264.8 520.686,265.483 524.453,266.85C528.219,268.217 531.486,270.117 534.253,272.55C537.019,274.983 539.169,277.883 540.703,281.25C542.236,284.617 543.003,288.333 543.003,292.4C543.003,296.467 542.219,300.183 540.653,303.55C539.086,306.917 536.936,309.817 534.203,312.25C531.469,314.683 528.186,316.567 524.353,317.9C520.519,319.233 516.369,319.9 511.903,319.9C507.503,319.9 503.436,319.233 499.703,317.9C495.969,316.567 492.753,314.667 490.053,312.2C487.353,309.733 485.236,306.783 483.703,303.35C482.169,299.917 481.403,296.1 481.403,291.9Z" style="fill:rgb(255,148,20);fill-rule:nonzero;"/>
        <path d="M587.403,279.9C584.069,278.167 580.803,277.3 577.603,277.3C575.936,277.3 574.586,277.633 573.553,278.3C572.519,278.967 572.003,279.867 572.003,281C572.003,281.6 572.086,282.083 572.253,282.45C572.419,282.817 572.786,283.167 573.353,283.5C573.919,283.833 574.753,284.133 575.853,284.4C576.953,284.667 578.403,285 580.203,285.4C585.203,286.4 588.936,288.183 591.403,290.75C593.869,293.317 595.103,296.6 595.103,300.6C595.103,303.6 594.503,306.3 593.303,308.7C592.103,311.1 590.436,313.117 588.303,314.75C586.169,316.383 583.603,317.65 580.603,318.55C577.603,319.45 574.303,319.9 570.703,319.9C563.769,319.9 556.936,317.933 550.203,314L556.803,301.2C561.869,304.667 566.669,306.4 571.203,306.4C572.869,306.4 574.236,306.033 575.303,305.3C576.369,304.567 576.903,303.633 576.903,302.5C576.903,301.833 576.819,301.283 576.653,300.85C576.486,300.417 576.136,300.017 575.603,299.65C575.069,299.283 574.286,298.95 573.253,298.65C572.219,298.35 570.869,298.033 569.203,297.7C563.603,296.567 559.686,294.883 557.453,292.65C555.219,290.417 554.103,287.333 554.103,283.4C554.103,280.533 554.636,277.95 555.703,275.65C556.769,273.35 558.303,271.4 560.303,269.8C562.303,268.2 564.719,266.967 567.553,266.1C570.386,265.233 573.536,264.8 577.003,264.8C582.669,264.8 588.169,265.9 593.503,268.1L587.403,279.9Z" style="fill:rgb(255,148,20);fill-rule:nonzero;"/>
        <path d="M625.903,281.8L625.903,318L607.803,318L607.803,281.8L601.803,281.8L601.803,266.7L607.803,266.7L607.803,251.3L625.903,251.3L625.903,266.7L636.203,266.7L636.203,281.8L625.903,281.8Z" style="fill:rgb(255,148,20);fill-rule:nonzero;"/>
        <path d="M719.703,290L710.903,264.9L702.103,290L719.703,290ZM724.903,304.9L696.903,304.9L692.403,318L671.503,318L700.203,242.6L721.603,242.6L750.303,318L729.403,318L724.903,304.9Z" style="fill:rgb(255,148,20);fill-rule:nonzero;"/>
        <path d="M775.403,266.7L775.403,295.6C775.403,301.933 778.469,305.1 784.603,305.1C790.736,305.1 793.803,301.933 793.803,295.6L793.803,266.7L811.903,266.7L811.903,299.1C811.903,306.033 809.619,311.233 805.053,314.7C800.486,318.167 793.669,319.9 784.603,319.9C775.536,319.9 768.719,318.167 764.153,314.7C759.586,311.233 757.303,306.033 757.303,299.1L757.303,266.7L775.403,266.7Z" style="fill:rgb(255,148,20);fill-rule:nonzero;"/>
        <path d="M844.403,281.8L844.403,318L826.303,318L826.303,281.8L820.303,281.8L820.303,266.7L826.303,266.7L826.303,251.3L844.403,251.3L844.403,266.7L854.703,266.7L854.703,281.8L844.403,281.8Z" style="fill:rgb(255,148,20);fill-rule:nonzero;"/>
        <path d="M863.803,235L881.903,235L881.903,273.2C884.369,270.2 886.869,268.183 889.403,267.15C891.936,266.117 894.903,265.6 898.303,265.6C904.769,265.6 909.653,267.383 912.953,270.95C916.253,274.517 917.903,279.333 917.903,285.4L917.903,318L899.803,318L899.803,292.1C899.803,289.5 899.603,287.4 899.203,285.8C898.803,284.2 898.136,282.967 897.203,282.1C895.603,280.7 893.669,280 891.403,280C888.336,280 885.986,280.917 884.353,282.75C882.719,284.583 881.903,287.2 881.903,290.6L881.903,318L863.803,318L863.803,235Z" style="fill:rgb(255,148,20);fill-rule:nonzero;"/>
        <path d="M947.303,292.1C947.303,293.833 947.619,295.417 948.253,296.85C948.886,298.283 949.719,299.533 950.753,300.6C951.786,301.667 953.019,302.5 954.453,303.1C955.886,303.7 957.403,304 959.003,304C960.603,304 962.119,303.7 963.553,303.1C964.986,302.5 966.219,301.667 967.253,300.6C968.286,299.533 969.119,298.283 969.753,296.85C970.386,295.417 970.703,293.867 970.703,292.2C970.703,290.6 970.386,289.083 969.753,287.65C969.119,286.217 968.286,284.967 967.253,283.9C966.219,282.833 964.986,282 963.553,281.4C962.119,280.8 960.603,280.5 959.003,280.5C957.403,280.5 955.886,280.8 954.453,281.4C953.019,282 951.786,282.833 950.753,283.9C949.719,284.967 948.886,286.2 948.253,287.6C947.619,289 947.303,290.5 947.303,292.1ZM928.203,291.9C928.203,288.1 928.969,284.55 930.503,281.25C932.036,277.95 934.169,275.083 936.903,272.65C939.636,270.217 942.886,268.3 946.653,266.9C950.419,265.5 954.536,264.8 959.003,264.8C963.403,264.8 967.486,265.483 971.253,266.85C975.019,268.217 978.286,270.117 981.053,272.55C983.819,274.983 985.969,277.883 987.503,281.25C989.036,284.617 989.803,288.333 989.803,292.4C989.803,296.467 989.019,300.183 987.453,303.55C985.886,306.917 983.736,309.817 981.003,312.25C978.269,314.683 974.986,316.567 971.153,317.9C967.319,319.233 963.169,319.9 958.703,319.9C954.303,319.9 950.236,319.233 946.503,317.9C942.769,316.567 939.553,314.667 936.853,312.2C934.153,309.733 932.036,306.783 930.503,303.35C928.969,299.917 928.203,296.1 928.203,291.9Z" style="fill:rgb(255,148,20);fill-rule:nonzero;"/>
        <path d="M1000.2,266.7L1018.3,266.7L1018.3,275.1C1020.24,272.033 1022.6,269.683 1025.4,268.05C1028.2,266.417 1031.47,265.6 1035.2,265.6L1036.75,265.6C1037.32,265.6 1037.97,265.667 1038.7,265.8L1038.7,283.1C1036.3,281.9 1033.7,281.3 1030.9,281.3C1026.7,281.3 1023.55,282.55 1021.45,285.05C1019.35,287.55 1018.3,291.2 1018.3,296L1018.3,318L1000.2,318L1000.2,266.7Z" style="fill:rgb(255,148,20);fill-rule:nonzero;"/>
        <path d="M449.796,376.85L449.796,443L427.746,443L427.746,376.85L409.634,376.85L409.634,358.175L467.909,358.175L467.909,376.85L449.796,376.85Z" style="fill:rgb(255,148,20);fill-rule:nonzero;"/>
        <path d="M490.746,413.975C490.746,415.85 491.084,417.594 491.759,419.206C492.434,420.819 493.353,422.225 494.515,423.425C495.678,424.625 497.065,425.562 498.678,426.237C500.29,426.912 502.034,427.25 503.909,427.25C505.709,427.25 507.415,426.912 509.028,426.237C510.64,425.562 512.028,424.625 513.19,423.425C514.353,422.225 515.29,420.837 516.003,419.262C516.715,417.687 517.071,416 517.071,414.2C517.071,412.4 516.715,410.694 516.003,409.081C515.29,407.469 514.353,406.062 513.19,404.862C512.028,403.662 510.64,402.725 509.028,402.05C507.415,401.375 505.709,401.037 503.909,401.037C502.034,401.037 500.29,401.375 498.678,402.05C497.065,402.725 495.678,403.662 494.515,404.862C493.353,406.062 492.434,407.431 491.759,408.969C491.084,410.506 490.746,412.175 490.746,413.975ZM516.396,385.287L536.871,385.287L536.871,443L516.396,443L516.396,436.587C512.046,442.062 506.159,444.8 498.734,444.8C494.534,444.8 490.671,444.031 487.146,442.494C483.621,440.956 480.546,438.8 477.921,436.025C475.296,433.25 473.253,429.987 471.79,426.237C470.328,422.487 469.596,418.4 469.596,413.975C469.596,409.85 470.309,405.931 471.734,402.219C473.159,398.506 475.146,395.262 477.696,392.487C480.246,389.712 483.284,387.519 486.809,385.906C490.334,384.294 494.234,383.487 498.509,383.487C505.709,383.487 511.671,386 516.396,391.025L516.396,385.287Z" style="fill:rgb(255,148,20);fill-rule:nonzero;"/>
        <path d="M572.534,411.725L549.134,385.287L575.684,385.287L585.584,397.212L595.709,385.287L622.259,385.287L598.296,411.725L627.209,443L600.209,443L585.471,425.9L570.621,443L543.734,443L572.534,411.725Z" style="fill:rgb(255,148,20);fill-rule:nonzero;"/>
        <path d="M649.709,413.862C649.709,415.812 650.065,417.594 650.778,419.206C651.49,420.819 652.428,422.225 653.59,423.425C654.753,424.625 656.14,425.562 657.753,426.237C659.365,426.912 661.071,427.25 662.871,427.25C664.671,427.25 666.378,426.912 667.99,426.237C669.603,425.562 670.99,424.625 672.153,423.425C673.315,422.225 674.253,420.819 674.965,419.206C675.678,417.594 676.034,415.85 676.034,413.975C676.034,412.175 675.678,410.469 674.965,408.856C674.253,407.244 673.315,405.837 672.153,404.637C670.99,403.437 669.603,402.5 667.99,401.825C666.378,401.15 664.671,400.812 662.871,400.812C661.071,400.812 659.365,401.15 657.753,401.825C656.14,402.5 654.753,403.437 653.59,404.637C652.428,405.837 651.49,407.225 650.778,408.8C650.065,410.375 649.709,412.062 649.709,413.862ZM628.221,413.637C628.221,409.362 629.084,405.369 630.809,401.656C632.534,397.944 634.934,394.719 638.009,391.981C641.084,389.244 644.74,387.087 648.978,385.512C653.215,383.937 657.846,383.15 662.871,383.15C667.821,383.15 672.415,383.919 676.653,385.456C680.89,386.994 684.565,389.131 687.678,391.869C690.79,394.606 693.209,397.869 694.934,401.656C696.659,405.444 697.521,409.625 697.521,414.2C697.521,418.775 696.64,422.956 694.878,426.744C693.115,430.531 690.696,433.794 687.621,436.531C684.546,439.269 680.853,441.387 676.54,442.887C672.228,444.387 667.559,445.137 662.534,445.137C657.584,445.137 653.009,444.387 648.809,442.887C644.609,441.387 640.99,439.25 637.953,436.475C634.915,433.7 632.534,430.381 630.809,426.519C629.084,422.656 628.221,418.362 628.221,413.637Z" style="fill:rgb(255,148,20);fill-rule:nonzero;"/>
        <path d="M709.221,385.287L729.584,385.287L729.584,392.6C732.359,389.225 735.171,386.956 738.021,385.794C740.871,384.631 744.209,384.05 748.034,384.05C752.084,384.05 755.553,384.706 758.44,386.019C761.328,387.331 763.784,389.187 765.809,391.587C767.459,393.537 768.584,395.712 769.184,398.112C769.784,400.512 770.084,403.25 770.084,406.325L770.084,443L749.721,443L749.721,413.862C749.721,411.012 749.515,408.706 749.103,406.944C748.69,405.181 747.959,403.775 746.909,402.725C746.009,401.825 744.996,401.187 743.871,400.812C742.746,400.437 741.546,400.25 740.271,400.25C736.821,400.25 734.178,401.281 732.34,403.344C730.503,405.406 729.584,408.35 729.584,412.175L729.584,443L709.221,443L709.221,385.287Z" style="fill:rgb(255,148,20);fill-rule:nonzero;"/>
        <path d="M803.159,413.862C803.159,415.812 803.515,417.594 804.228,419.206C804.94,420.819 805.878,422.225 807.04,423.425C808.203,424.625 809.59,425.562 811.203,426.237C812.815,426.912 814.521,427.25 816.321,427.25C818.121,427.25 819.828,426.912 821.44,426.237C823.053,425.562 824.44,424.625 825.603,423.425C826.765,422.225 827.703,420.819 828.415,419.206C829.128,417.594 829.484,415.85 829.484,413.975C829.484,412.175 829.128,410.469 828.415,408.856C827.703,407.244 826.765,405.837 825.603,404.637C824.44,403.437 823.053,402.5 821.44,401.825C819.828,401.15 818.121,400.812 816.321,400.812C814.521,400.812 812.815,401.15 811.203,401.825C809.59,402.5 808.203,403.437 807.04,404.637C805.878,405.837 804.94,407.225 804.228,408.8C803.515,410.375 803.159,412.062 803.159,413.862ZM781.671,413.637C781.671,409.362 782.534,405.369 784.259,401.656C785.984,397.944 788.384,394.719 791.459,391.981C794.534,389.244 798.19,387.087 802.428,385.512C806.665,383.937 811.296,383.15 816.321,383.15C821.271,383.15 825.865,383.919 830.103,385.456C834.34,386.994 838.015,389.131 841.128,391.869C844.24,394.606 846.659,397.869 848.384,401.656C850.109,405.444 850.971,409.625 850.971,414.2C850.971,418.775 850.09,422.956 848.328,426.744C846.565,430.531 844.146,433.794 841.071,436.531C837.996,439.269 834.303,441.387 829.99,442.887C825.678,444.387 821.009,445.137 815.984,445.137C811.034,445.137 806.459,444.387 802.259,442.887C798.059,441.387 794.44,439.25 791.403,436.475C788.365,433.7 785.984,430.381 784.259,426.519C782.534,422.656 781.671,418.362 781.671,413.637Z" style="fill:rgb(255,148,20);fill-rule:nonzero;"/>
        <path d="M862.671,385.287L883.034,385.287L883.034,392.375C888.584,387.05 894.809,384.387 901.709,384.387C910.259,384.387 916.784,387.987 921.284,395.187C925.859,387.912 932.384,384.275 940.859,384.275C943.559,384.275 946.109,384.669 948.509,385.456C950.909,386.244 952.971,387.481 954.696,389.169C956.421,390.856 957.79,393.05 958.803,395.75C959.815,398.45 960.321,401.712 960.321,405.537L960.321,443L939.959,443L939.959,414.537C939.959,411.612 939.753,409.212 939.34,407.337C938.928,405.462 938.328,404 937.54,402.95C936.753,401.9 935.834,401.187 934.784,400.812C933.734,400.437 932.609,400.25 931.409,400.25C924.884,400.25 921.621,405.012 921.621,414.537L921.621,443L901.259,443L901.259,414.537C901.259,411.612 901.071,409.194 900.696,407.281C900.321,405.369 899.778,403.85 899.065,402.725C898.353,401.6 897.434,400.831 896.309,400.419C895.184,400.006 893.871,399.8 892.371,399.8C891.096,399.8 889.896,399.987 888.771,400.362C887.646,400.737 886.653,401.469 885.79,402.556C884.928,403.644 884.253,405.144 883.765,407.056C883.278,408.969 883.034,411.462 883.034,414.537L883.034,443L862.671,443L862.671,385.287Z" style="fill:rgb(255,148,20);fill-rule:nonzero;"/>
        <path d="M993.171,435.125L965.271,385.287L988.896,385.287L1004.31,414.875L1019.27,385.287L1042.67,385.287L996.321,471.8L973.484,471.8L993.171,435.125Z" style="fill:rgb(255,148,20);fill-rule:nonzero;"/>
    </g>
    <defs>
        <radialGradient id="_Radial1" cx="0" cy="0" r="1" gradientUnits="userSpaceOnUse" gradientTransform="matrix(1574.88,-779.72,-779.72,-1574.88,0,772)"><stop offset="0" style="stop-color:rgb(48,35,174);stop-opacity:1"/><stop offset="1" style="stop-color:rgb(200,109,215);stop-opacity:1"/></radialGradient>
    </defs>
</svg>
